<svg width="15" height="15" xmlns="http://www.w3.org/2000/svg"><path d="M12.838 8.177v2.608a2.063 2.063 0 0 1-2.056 2.057H4.381a2.064 2.064 0 0 1-2.057-2.057V4.384c0-1.131.926-2.056 2.057-2.056h2.608V.566H4.381A3.823 3.823 0 0 0 .562 4.384v6.401a3.822 3.822 0 0 0 3.819 3.818h6.401a3.823 3.823 0 0 0 3.818-3.818V8.177h-1.762z"/><path d="M13.567.562H9.078c-.57 0-.707.33-.304.733l1.925 1.925-4.002 4.003a.881.881 0 0 0 1.246 1.246l4.004-4.002 1.925 1.925c.403.403.732.266.732-.304V1.599A1.04 1.04 0 0 0 13.567.562z"/></svg>