<svg width="156" height="35" xmlns="http://www.w3.org/2000/svg"><path d="M.78 8.423h1.243c.078.515.345.925.8 1.23.456.306 1.035.458 1.737.458.665 0 1.215-.16 1.65-.482.436-.32.653-.725.653-1.213 0-.42-.16-.768-.478-1.046-.32-.278-.818-.501-1.497-.67l-1.265-.328c-.893-.228-1.543-.552-1.948-.974-.406-.422-.609-.983-.609-1.685 0-.839.32-1.517.96-2.034.641-.517 1.483-.776 2.527-.776.952 0 1.75.256 2.392.766.643.51.99 1.164 1.04 1.962H6.746c-.087-.506-.327-.901-.721-1.186-.394-.285-.899-.427-1.514-.427-.657 0-1.184.15-1.583.45a1.435 1.435 0 0 0-.598 1.204c0 .387.147.702.441.943.294.242.78.45 1.46.622l1.032.274c1.02.255 1.753.597 2.197 1.025.445.429.667 1.005.667 1.73 0 .907-.332 1.628-.995 2.163-.663.536-1.56.803-2.69.803-1.043 0-1.899-.255-2.567-.765C1.21 9.957.843 9.275.78 8.423zm16.753 1.47V11H11.42V1.136h6.112v1.107h-4.881v3.165h4.628v1.094h-4.628v3.39h4.88zM22.228 11H21.01V1.136h1.196l5.353 7.676h.11V1.136h1.216V11H27.69l-5.353-7.65h-.11V11zm14.217 0h-1.23V2.243h-3.18V1.136h7.589v1.107h-3.179V11zM46.513.903c1.404 0 2.507.465 3.309 1.395.802.93 1.203 2.185 1.203 3.766 0 1.577-.4 2.833-1.2 3.767-.8.934-1.904 1.401-3.312 1.401-1.413 0-2.521-.467-3.326-1.4-.804-.935-1.206-2.19-1.206-3.768 0-1.585.407-2.842 1.22-3.77.814-.927 1.918-1.39 3.312-1.39zm0 1.135c-1.003 0-1.798.362-2.386 1.087-.588.725-.881 1.704-.881 2.94 0 1.22.288 2.198.864 2.932.577.734 1.378 1.1 2.403 1.1 1.012 0 1.806-.366 2.382-1.1.577-.734.865-1.711.865-2.933 0-1.235-.29-2.214-.868-2.939-.579-.725-1.372-1.087-2.379-1.087zm16.173 5.148c0 1.216-.383 2.195-1.149 2.936-.766.74-1.78 1.11-3.042 1.11-1.363 0-2.448-.467-3.257-1.4-.81-.935-1.214-2.19-1.214-3.768 0-1.558.408-2.808 1.224-3.75.816-.94 1.898-1.41 3.247-1.41 1.094 0 2.011.283 2.752.85.74.568 1.2 1.341 1.377 2.321h-1.251c-.21-.665-.558-1.171-1.046-1.517-.487-.347-1.098-.52-1.832-.52-.975 0-1.753.365-2.334 1.094-.581.729-.872 1.707-.872 2.932 0 1.245.288 2.228.865 2.95.576.722 1.359 1.084 2.348 1.084.884 0 1.598-.258 2.143-.773.545-.515.817-1.19.817-2.023v-.24h-2.775v-1.08h3.999v1.204zm4.688-6.05v6.391c0 .743.234 1.357.704 1.843.47.485 1.13.728 1.982.728.857 0 1.519-.243 1.986-.728.467-.486.7-1.1.7-1.843V1.136h1.231v6.473c0 1.053-.346 1.92-1.039 2.601-.693.682-1.652 1.022-2.878 1.022-1.221 0-2.18-.34-2.874-1.022-.695-.68-1.043-1.548-1.043-2.6V1.135h1.23zm11.633 1.093v3.774h2.427c.633 0 1.122-.163 1.466-.489.344-.326.516-.792.516-1.398 0-.592-.18-1.055-.54-1.387-.36-.333-.859-.5-1.497-.5h-2.372zm0 4.868V11h-1.23V1.136h3.766c.953 0 1.715.267 2.287.803.572.535.858 1.248.858 2.136 0 .688-.176 1.283-.527 1.784-.35.502-.836.85-1.456 1.046L84.988 11h-1.442l-2.112-3.903h-2.427zM94.585 11l-.15-.427a514.553 514.553 0 0 1-.691-1.969l-.15-.427H89.67L88.679 11h-1.292l3.636-9.864h1.217L95.877 11h-1.292zm-3.008-8.271l-.157.444-.387 1.1-.458 1.313c-.152.437-.28.804-.386 1.1l-.157.445h3.2l-1.546-4.402h-.109zm6.807 5.694h1.244c.078.515.344.925.8 1.23.456.306 1.035.458 1.736.458.666 0 1.216-.16 1.651-.482.436-.32.653-.725.653-1.213 0-.42-.16-.768-.478-1.046-.32-.278-.818-.501-1.497-.67l-1.265-.328c-.893-.228-1.543-.552-1.948-.974-.406-.422-.609-.983-.609-1.685 0-.839.32-1.517.96-2.034.641-.517 1.483-.776 2.527-.776.952 0 1.75.256 2.392.766.643.51.99 1.164 1.04 1.962h-1.238c-.087-.506-.327-.901-.721-1.186-.394-.285-.9-.427-1.514-.427-.657 0-1.184.15-1.583.45a1.435 1.435 0 0 0-.598 1.204c0 .387.147.702.44.943.295.242.781.45 1.46.622l1.033.274c1.02.255 1.753.597 2.197 1.025.445.429.667 1.005.667 1.73 0 .907-.332 1.628-.995 2.163-.663.536-1.56.803-2.69.803-1.043 0-1.899-.255-2.567-.765-.667-.51-1.033-1.192-1.097-2.044zM116.901 11h-1.23V6.509h-5.414V11h-1.23V1.136h1.23V5.4h5.414V1.136h1.23V11zm4.996 0h-1.23V1.136h1.23V11zm4.712-1.357v1.28c0 .956-.155 1.266-.814 1.667l-.35-.427c.53-.245.621-.44.621-1.24h-.75v-1.28h1.293zM130.042 11V3.63h1.176V11h-1.176zm.588-8.866a.789.789 0 0 1-.578-.243.789.789 0 0 1-.243-.578c0-.227.081-.421.243-.58a.794.794 0 0 1 .578-.24c.228 0 .421.08.58.24.16.159.24.353.24.58 0 .224-.08.416-.24.578a.785.785 0 0 1-.58.243zM134.71 11V3.63h1.12v1.163h.11c.187-.406.461-.722.824-.95.362-.228.826-.342 1.39-.342.83 0 1.467.236 1.911.707.445.472.667 1.146.667 2.02V11h-1.176V6.516c0-.666-.142-1.158-.427-1.477-.285-.319-.721-.478-1.31-.478-.587 0-1.057.184-1.408.553-.35.37-.526.878-.526 1.525V11h-1.176zm15.516-5.113h-1.19a1.765 1.765 0 0 0-.625-.937c-.322-.26-.747-.39-1.275-.39-.661 0-1.186.247-1.576.739-.39.492-.584 1.155-.584 1.99 0 .851.196 1.528.587 2.03.392.5.916.751 1.573.751.496 0 .91-.111 1.24-.335.33-.223.55-.542.66-.957h1.19a2.664 2.664 0 0 1-.957 1.682c-.534.447-1.242.67-2.126.67-1.03 0-1.852-.348-2.465-1.043-.613-.695-.92-1.628-.92-2.799 0-1.148.306-2.067.917-2.755.61-.688 1.43-1.032 2.46-1.032.898 0 1.613.234 2.144.7.53.468.846 1.03.947 1.686zm3.956 5.181a.854.854 0 0 1-.625-.263.854.854 0 0 1-.263-.625c0-.246.087-.456.263-.63a.86.86 0 0 1 .625-.259c.246 0 .456.087.63.26a.86.86 0 0 1 .259.629.86.86 0 0 1-.26.625.851.851 0 0 1-.629.263zM.668 31.791h1.066c.067.441.295.793.686 1.055.39.261.887.392 1.488.392.57 0 1.042-.137 1.415-.413.373-.275.56-.622.56-1.04 0-.36-.137-.658-.41-.896-.274-.239-.702-.43-1.284-.575l-1.084-.28c-.765-.196-1.322-.474-1.67-.836-.347-.361-.52-.843-.52-1.444 0-.719.273-1.3.822-1.743.55-.444 1.27-.665 2.165-.665.817 0 1.5.218 2.051.656.55.437.848.998.89 1.682h-1.06a1.518 1.518 0 0 0-.618-1.017c-.338-.244-.77-.366-1.298-.366-.562 0-1.014.129-1.356.387a1.227 1.227 0 0 0-.513 1.03 1 1 0 0 0 .378.81c.252.206.669.384 1.251.533l.885.234c.875.219 1.503.512 1.884.879.38.367.57.861.57 1.482 0 .778-.283 1.396-.852 1.855-.568.459-1.337.688-2.305.688-.895 0-1.628-.219-2.2-.656-.573-.438-.886-1.022-.941-1.752zM9.299 34v-6.316h1.008V34H9.299zm.504-7.6a.676.676 0 0 1-.495-.208.676.676 0 0 1-.208-.495c0-.195.07-.361.208-.498a.68.68 0 0 1 .495-.205c.195 0 .361.068.498.205a.678.678 0 0 1 .205.498.68.68 0 0 1-.205.495.673.673 0 0 1-.498.208zm3.111 7.6v-6.316h.961v.996h.094c.16-.348.396-.62.706-.815.31-.195.708-.293 1.193-.293.71 0 1.256.202 1.637.607.381.404.572.981.572 1.731V34h-1.008v-3.844c0-.57-.122-.992-.367-1.265-.244-.274-.618-.41-1.122-.41-.503 0-.906.158-1.207.474-.3.316-.45.752-.45 1.307V34h-1.009zm12.915-4.383h-1.02a1.513 1.513 0 0 0-.536-.803c-.275-.222-.64-.334-1.093-.334-.566 0-1.016.211-1.35.633-.334.422-.501.99-.501 1.705 0 .73.168 1.31.504 1.74.335.43.785.645 1.347.645.426 0 .78-.096 1.064-.287.283-.191.471-.465.565-.82h1.02a2.283 2.283 0 0 1-.82 1.441c-.458.383-1.065.574-1.823.574-.883 0-1.587-.298-2.112-.893-.526-.596-.788-1.396-.788-2.4 0-.984.261-1.771.785-2.361.523-.59 1.226-.885 2.11-.885.769 0 1.381.2 1.836.6.455.401.726.883.812 1.445zm4.693-1.154c-.504 0-.918.17-1.242.51-.324.34-.506.789-.545 1.347h3.48c-.011-.558-.171-1.007-.48-1.347-.309-.34-.713-.51-1.213-.51zm1.664 3.902h1.008a2.21 2.21 0 0 1-.926 1.28c-.465.311-1.043.466-1.734.466-.875 0-1.568-.294-2.08-.882-.512-.587-.768-1.381-.768-2.381 0-.993.258-1.786.774-2.382.515-.596 1.207-.894 2.074-.894.851 0 1.521.284 2.01.853.488.568.732 1.343.732 2.323v.387h-4.541v.047c.027.625.204 1.12.53 1.488.326.367.757.55 1.292.55.407 0 .746-.073 1.02-.219.273-.147.476-.358.61-.636zm7.372-4.435c0-.754.26-1.373.782-1.858.521-.484 1.186-.726 1.995-.726.738 0 1.357.223 1.857.67.5.448.75 1.015.75 1.703 0 .484-.133.95-.401 1.397-.268.447-.782 1.066-1.544 1.855l-1.922 1.986v.094h4.008V34H39.61v-.727l2.86-3.093c.539-.582.906-1.027 1.101-1.333a1.85 1.85 0 0 0 .293-1.017c0-.45-.141-.822-.425-1.12-.283-.296-.674-.444-1.174-.444-.508 0-.916.152-1.225.457-.309.304-.463.707-.463 1.207h-1.02zm10.828 6.27c-.953 0-1.691-.387-2.215-1.16-.523-.774-.785-1.864-.785-3.27 0-1.395.264-2.48.791-3.258s1.264-1.166 2.209-1.166c.941 0 1.675.39 2.2 1.169.526.779.788 1.87.788 3.272 0 1.402-.26 2.488-.782 3.258-.521.77-1.257 1.154-2.206 1.154zm0-.92c.625 0 1.102-.302 1.433-.906.33-.603.495-1.472.495-2.604 0-1.122-.167-1.985-.501-2.59-.334-.606-.81-.909-1.427-.909s-1.095.304-1.433.912c-.338.607-.507 1.47-.507 2.587 0 1.128.167 1.996.501 2.601.334.606.814.908 1.439.908zm7.424.72v-7.283h-.094l-.325.234c-.217.156-.467.338-.75.545-.283.207-.533.389-.75.545l-.325.234v-1.113l.34-.243c.226-.162.488-.35.785-.565.297-.215.558-.404.785-.566l.34-.243h1.049V34H57.81zm7.149.2c-.895 0-1.626-.23-2.195-.69-.568-.458-.852-1.05-.852-1.772 0-.55.16-1.023.48-1.418.32-.394.746-.64 1.277-.738v-.094a1.86 1.86 0 0 1-1.028-.685 1.94 1.94 0 0 1-.384-1.201c0-.66.253-1.202.76-1.623.505-.422 1.152-.633 1.942-.633.793 0 1.44.21 1.945.633.504.421.756.962.756 1.623 0 .46-.126.86-.378 1.198a1.869 1.869 0 0 1-1.034.688v.094c.53.098.957.344 1.277.738.32.395.48.867.48 1.418 0 .723-.283 1.314-.85 1.773-.566.459-1.298.688-2.196.688zm0-.903c.585 0 1.062-.151 1.43-.454.366-.303.55-.697.55-1.18 0-.485-.184-.879-.55-1.182-.368-.302-.845-.454-1.43-.454-.586 0-1.063.152-1.43.454a1.46 1.46 0 0 0-.55 1.181c0 .484.183.878.55 1.18.367.304.844.455 1.43.455zm0-4.16c.5 0 .902-.132 1.207-.396.304-.263.457-.61.457-1.04 0-.437-.153-.789-.457-1.055-.305-.265-.707-.398-1.207-.398-.5 0-.903.133-1.207.398-.305.266-.458.618-.458 1.055 0 .43.154.777.46 1.04.307.264.708.396 1.205.396zm5.888 4.922a.732.732 0 0 1-.536-.226.732.732 0 0 1-.225-.536c0-.211.075-.39.225-.54a.737.737 0 0 1 .536-.222c.211 0 .391.074.54.223a.734.734 0 0 1 .222.539.737.737 0 0 1-.223.536.73.73 0 0 1-.539.226zM75.87 34v-7.283h-.094l-.325.234c-.217.156-.467.338-.75.545-.283.207-.533.389-.75.545l-.325.234v-1.113l.34-.243c.226-.162.488-.35.785-.565.297-.215.558-.404.785-.566l.34-.243h1.049V34H75.87zm7.102.2c-.953 0-1.692-.387-2.215-1.16-.524-.774-.785-1.864-.785-3.27 0-1.395.263-2.48.79-3.258.528-.778 1.264-1.166 2.21-1.166.941 0 1.675.39 2.2 1.169.525.779.788 1.87.788 3.272 0 1.402-.26 2.488-.782 3.258s-1.257 1.154-2.206 1.154zm0-.92c.625 0 1.102-.302 1.432-.906.33-.603.495-1.472.495-2.604 0-1.122-.166-1.985-.5-2.59-.334-.606-.81-.909-1.427-.909s-1.095.304-1.433.912c-.338.607-.507 1.47-.507 2.587 0 1.128.167 1.996.501 2.601.334.606.814.908 1.439.908zm5.771.779a.732.732 0 0 1-.536-.226.732.732 0 0 1-.225-.536c0-.211.075-.39.225-.54a.737.737 0 0 1 .536-.222c.211 0 .391.074.54.223a.734.734 0 0 1 .222.539.737.737 0 0 1-.223.536.73.73 0 0 1-.539.226zM93.764 34v-7.283h-.094l-.325.234c-.217.156-.467.338-.75.545-.283.207-.533.389-.75.545l-.325.234v-1.113l.34-.243c.226-.162.488-.35.785-.565l.785-.566.34-.243h1.049V34h-1.055zm7.102.2c-.953 0-1.692-.387-2.215-1.16-.523-.774-.785-1.864-.785-3.27 0-1.395.263-2.48.79-3.258.528-.778 1.264-1.166 2.21-1.166.941 0 1.675.39 2.2 1.169.525.779.788 1.87.788 3.272 0 1.402-.26 2.488-.782 3.258s-1.257 1.154-2.206 1.154zm0-.92c.625 0 1.102-.302 1.432-.906.33-.603.496-1.472.496-2.604 0-1.122-.167-1.985-.501-2.59-.334-.606-.81-.909-1.427-.909s-1.095.304-1.433.912c-.338.607-.507 1.47-.507 2.587 0 1.128.167 1.996.501 2.601.334.606.814.908 1.439.908z" fill-rule="evenodd" fill-opacity=".56"/></svg>