<?xml version="1.0" encoding="UTF-8"?>
<svg width="15px" height="15px" viewBox="0 0 15 15" version="1.1" xmlns="http://www.w3.org/2000/svg" xmlns:xlink="http://www.w3.org/1999/xlink">
    <!-- Generator: sketchtool 51.3 (57544) - http://www.bohemiancoding.com/sketch -->
    <title>common/ico_facebook</title>
    <desc>Created with sketchtool.</desc>
    <defs></defs>
    <g id="Page-1" stroke="none" stroke-width="1" fill="none" fill-rule="evenodd">
        <g id="A4" transform="translate(-94.000000, -304.000000)" fill="#000000">
            <path d="M102.011986,319 L94.8278849,319 C94.3705227,319 94,318.629247 94,318.172063 L94,304.827878 C94,304.370578 94.3705809,304 94.8278849,304 L108.172173,304 C108.629361,304 109,304.370578 109,304.827878 L109,318.172063 C109,318.629306 108.629303,319 108.172173,319 L104.349783,319 L104.349783,313.191173 L106.299538,313.191173 L106.591486,310.927371 L104.349783,310.927371 L104.349783,309.482075 C104.349783,308.826652 104.531785,308.380003 105.471653,308.380003 L106.67041,308.379479 L106.67041,306.354716 C106.463089,306.327128 105.751495,306.265491 104.92361,306.265491 C103.195261,306.265491 102.011986,307.320477 102.011986,309.257878 L102.011986,310.927371 L100.057226,310.927371 L100.057226,313.191173 L102.011986,313.191173 L102.011986,319 L102.011986,319 Z" id="common/ico_facebook"></path>
        </g>
    </g>
</svg>