<?xml version="1.0" encoding="UTF-8"?>
<svg width="15px" height="15px" viewBox="0 0 15 15" version="1.1" xmlns="http://www.w3.org/2000/svg" xmlns:xlink="http://www.w3.org/1999/xlink">
    <!-- Generator: sketchtool 51.3 (57544) - http://www.bohemiancoding.com/sketch -->
    <title>common/ico_instagram</title>
    <desc>Created with sketchtool.</desc>
    <defs></defs>
    <g id="Page-1" stroke="none" stroke-width="1" fill="none" fill-rule="evenodd">
        <g id="A4" transform="translate(-199.000000, -305.000000)" fill="#000000">
            <path d="M206.500015,305 C208.536878,305 208.792286,305.008634 209.59224,305.045133 C210.390528,305.081544 210.93573,305.20834 211.412785,305.393755 C211.905976,305.585393 212.324233,305.841843 212.74121,306.25879 C213.158157,306.675767 213.414607,307.094024 213.606275,307.587215 C213.79166,308.06427 213.918456,308.609472 213.954867,309.40776 C213.991366,310.207714 214,310.463122 214,312.500015 C214,314.536878 213.991366,314.792286 213.954867,315.59224 C213.918456,316.390528 213.79166,316.93573 213.606275,317.412785 C213.414607,317.905976 213.158157,318.324233 212.74121,318.74121 C212.324233,319.158157 211.905976,319.414607 211.412785,319.606275 C210.93573,319.79166 210.390528,319.918456 209.59224,319.954867 C208.792286,319.991366 208.536878,320 206.500015,320 C204.463122,320 204.207714,319.991366 203.40776,319.954867 C202.609472,319.918456 202.06427,319.79166 201.587215,319.606275 C201.094024,319.414607 200.675767,319.158157 200.25879,318.74121 C199.841843,318.324233 199.585393,317.905976 199.393755,317.412785 C199.20834,316.93573 199.081544,316.390528 199.045133,315.59224 C199.008634,314.792286 199,314.536878 199,312.500015 C199,310.463122 199.008634,310.207714 199.045133,309.40776 C199.081544,308.609472 199.20834,308.06427 199.393755,307.587215 C199.585393,307.094024 199.841843,306.675767 200.25879,306.25879 C200.675767,305.841843 201.094024,305.585393 201.587215,305.393755 C202.06427,305.20834 202.609472,305.081544 203.40776,305.045133 C204.207714,305.008634 204.463122,305 206.500015,305 Z M206.500015,306.351349 C204.497419,306.351349 204.260201,306.359 203.469356,306.395083 C202.738114,306.428427 202.340994,306.550608 202.076715,306.653319 C201.726634,306.789374 201.476793,306.951896 201.214359,307.214359 C200.951896,307.476793 200.789374,307.726634 200.653319,308.076715 C200.550608,308.340994 200.428427,308.738114 200.395083,309.469356 C200.359,310.260201 200.351349,310.497419 200.351349,312.500015 C200.351349,314.502581 200.359,314.739799 200.395083,315.530644 C200.428427,316.261886 200.550608,316.659006 200.653319,316.923285 C200.789374,317.273366 200.951925,317.523207 201.214359,317.785641 C201.476793,318.048104 201.726634,318.210626 202.076715,318.346681 C202.340994,318.449392 202.738114,318.571573 203.469356,318.604917 C204.260112,318.641 204.49727,318.648651 206.500015,318.648651 C208.50273,318.648651 208.739918,318.641 209.530644,318.604917 C210.261886,318.571573 210.659006,318.449392 210.923285,318.346681 C211.273366,318.210626 211.523207,318.048104 211.785641,317.785641 C212.048104,317.523207 212.210626,317.273366 212.346681,316.923285 C212.449392,316.659006 212.571573,316.261886 212.604917,315.530644 C212.641,314.739799 212.648651,314.502581 212.648651,312.500015 C212.648651,310.497419 212.641,310.260201 212.604917,309.469356 C212.571573,308.738114 212.449392,308.340994 212.346681,308.076715 C212.210626,307.726634 212.048104,307.476793 211.785641,307.214359 C211.523207,306.951896 211.273366,306.789374 210.923285,306.653319 C210.659006,306.550608 210.261886,306.428427 209.530644,306.395083 C208.739799,306.359 208.502581,306.351349 206.500015,306.351349 Z M206.500015,308.648651 C208.627055,308.648651 210.351349,310.372945 210.351349,312.500015 C210.351349,314.627055 208.627055,316.351349 206.500015,316.351349 C204.372945,316.351349 202.648651,314.627055 202.648651,312.500015 C202.648651,310.372945 204.372945,308.648651 206.500015,308.648651 Z M206.500015,315 C207.880718,315 209,313.880718 209,312.500015 C209,311.119282 207.880718,310 206.500015,310 C205.119282,310 204,311.119282 204,312.500015 C204,313.880718 205.119282,315 206.500015,315 Z M211.403526,308.49649 C211.403526,308.993552 211.000572,309.396476 210.50351,309.396476 C210.006478,309.396476 209.603524,308.993552 209.603524,308.49649 C209.603524,307.999428 210.006478,307.596474 210.50351,307.596474 C211.000572,307.596474 211.403526,307.999428 211.403526,308.49649 Z" id="common/ico_instagram"></path>
        </g>
    </g>
</svg>