<?xml version="1.0" encoding="UTF-8"?>
<svg width="16px" height="13px" viewBox="0 0 16 13" version="1.1" xmlns="http://www.w3.org/2000/svg" xmlns:xlink="http://www.w3.org/1999/xlink">
    <!-- Generator: sketchtool 51.3 (57544) - http://www.bohemiancoding.com/sketch -->
    <title>common/ico_twitter</title>
    <desc>Created with sketchtool.</desc>
    <defs></defs>
    <g id="Page-1" stroke="none" stroke-width="1" fill="none" fill-rule="evenodd">
        <g id="A4" transform="translate(-127.000000, -306.000000)" fill="#4A4A4A">
            <path d="M141.115161,308.055399 C141.793215,307.649765 142.313494,307.006573 142.558608,306.240376 C141.923754,306.615962 141.222222,306.889202 140.472795,307.035681 C139.875506,306.398122 139.021835,306 138.077068,306 C136.265481,306 134.795739,307.469484 134.795739,309.28169 C134.795739,309.538967 134.823913,309.788732 134.880261,310.029108 C132.152081,309.892019 129.733815,308.586854 128.113811,306.599061 C127.831132,307.085446 127.669601,307.649765 127.669601,308.250704 C127.669601,309.388732 128.249046,310.393427 129.129952,310.98216 C128.592769,310.966197 128.085637,310.816901 127.642367,310.57277 L127.642367,310.613146 C127.642367,312.203756 128.774021,313.530516 130.276633,313.830986 C130.001467,313.907981 129.711275,313.946479 129.411692,313.946479 C129.200387,313.946479 128.993778,313.926761 128.793743,313.888263 C129.211657,315.191549 130.423138,316.140845 131.860011,316.166197 C130.736808,317.046948 129.320596,317.571831 127.783236,317.571831 C127.518401,317.571831 127.256383,317.556808 127,317.526761 C128.452838,318.456338 130.178963,319 132.031872,319 C138.070494,319 141.371544,314 141.371544,309.662911 C141.371544,309.520188 141.368727,309.377465 141.363092,309.237559 C142.00452,308.774648 142.561425,308.197183 143,307.538967 C142.412103,307.8 141.779128,307.976526 141.115161,308.055399 Z" id="common/ico_twitter"></path>
        </g>
    </g>
</svg>