<?xml version="1.0" encoding="UTF-8"?>
<svg width="100px" height="93px" viewBox="0 0 100 93" version="1.1" xmlns="http://www.w3.org/2000/svg" xmlns:xlink="http://www.w3.org/1999/xlink">
    <!-- Generator: sketchtool 51.3 (57544) - http://www.bohemiancoding.com/sketch -->
    <title>common/vi_logo</title>
    <desc>Created with sketchtool.</desc>
    <defs></defs>
    <g id="Page-1" stroke="none" stroke-width="1" fill="none" fill-rule="evenodd">
        <g id="A4" transform="translate(-93.000000, -120.000000)" fill-rule="nonzero">
            <g id="common/vi_logo" transform="translate(93.000000, 120.000000)">
                <polygon id="Shape" fill="#1A274B" points="20.4625551 17.5957746 10.2643172 0.0218309859 0 17.5739437 9.38325991 17.5957746 9.36123348 30.3014085 0.50660793 30.2795775 0.50660793 31.9823944 9.36123348 31.9823944 9.36123348 43.3126761 0.154185022 46.0197183 0.616740088 47.6352113 20.2643172 41.893662 19.7797357 40.278169 11.0572687 42.8323944 11.0792952 31.9823944 19.9339207 32.0042254 19.9339207 30.3014085 11.0792952 30.3014085 11.0792952 17.5957746"></polygon>
                <polygon id="Shape" fill="#1A274B" points="46.123348 24.1232394 46.123348 22.4422535 30.6828194 22.4204225 29.8898678 17.6176056 42.092511 17.6176056 42.092511 15.9366197 29.6035242 15.9147887 27.4449339 2.57605634 25.7488987 2.85985915 27.8854626 15.9147887 22.6651982 15.9147887 22.6651982 17.5957746 28.1718062 17.6176056 28.9427313 22.4204225 22.6651982 22.3985915 22.6651982 24.1014085 29.2290749 24.1014085 31.3215859 36.9161972 22.6431718 39.4485915 23.1277533 41.0640845 31.5859031 38.5971831 33.061674 47.6570423 34.7577093 47.3732394 33.2378855 38.1169014 45.6167401 34.4929577 45.1321586 32.8774648 32.9515419 36.4140845 30.9471366 24.1014085"></polygon>
                <ellipse id="Oval" fill="#1A274B" transform="translate(4.167161, 37.134991) rotate(-89.932661) translate(-4.167161, -37.134991) " cx="4.16716141" cy="37.1349907" rx="1.7841422" ry="1.76831108"></ellipse>
                <ellipse id="Oval" fill="#1A274B" transform="translate(16.268171, 37.149852) rotate(-89.932071) translate(-16.268171, -37.149852) " cx="16.2681711" cy="37.1498515" rx="1.78414222" ry="1.7683111"></ellipse>
                <ellipse id="Oval" fill="#1A274B" transform="translate(35.336700, 6.346818) rotate(-89.932231) translate(-35.336700, -6.346818) " cx="35.3367003" cy="6.34681756" rx="3.78854891" ry="3.7549322"></ellipse>
                <path d="M76.6299559,24.0795775 L99.8898678,24.1014085 L99.8898678,22.4204225 L78.061674,22.3985915 L80.1762115,19.9098592 L93.7444934,19.9316901 L93.7444934,18.2507042 L93.7444934,18.2507042 L93.7444934,11.5704225 L93.7444934,11.5704225 L93.7444934,11.0683099 L93.7444934,2.37957746 L92.0484581,2.37957746 L92.0484581,2.37957746 L73.0396476,2.35774648 L73.0176211,19.9098592 L74.7136564,19.9098592 L74.7136564,19.9098592 L77.9515419,19.9098592 L75.8370044,22.3985915 L66.8722467,22.3985915 L66.8722467,24.0795775 L74.4052863,24.0795775 L66.8722467,32.9211268 L68.1718062,34.0126761 L72.0704846,29.428169 L78.6123348,29.428169 L78.5903084,45.4739437 L80.2863436,45.4739437 L80.30837,29.428169 L86.5418502,29.428169 L86.5198238,45.4739437 L88.215859,45.4739437 L88.2378855,29.428169 L98.1497797,29.45 L98.1277533,45.4957746 L99.8237885,45.4957746 L99.845815,27.7471831 L98.1497797,27.7471831 L98.1497797,27.7471831 L87.7092511,27.7253521 L86.5198238,27.7253521 L86.5198238,27.7253521 L73.4581498,27.7035211 L76.6299559,24.0795775 Z M92.0704846,9.86760563 L74.7577093,9.84577465 L74.7577093,4.01690141 L92.0704846,4.03873239 L92.0704846,9.86760563 Z M74.7356828,18.2070423 L74.7356828,11.5267606 L92.0484581,11.5485915 L92.0484581,18.2288732 L79.4052863,18.2070423 L79.4052863,18.2070423 L79.4052863,18.2070423 L74.7356828,18.2070423 Z" id="Shape" fill="#1A274B"></path>
                <ellipse id="Oval" fill="#1A274B" transform="translate(63.804262, 6.084161) rotate(-89.932232) translate(-63.804262, -6.084161) " cx="63.8042622" cy="6.08416068" rx="3.78854891" ry="3.7549322"></ellipse>
                <ellipse id="Oval" fill="#1A274B" transform="translate(57.452174, 16.124019) rotate(-89.932231) translate(-57.452174, -16.124019) " cx="57.4521743" cy="16.1240187" rx="3.78854891" ry="3.7549322"></ellipse>
                <ellipse id="Oval" fill="#1A274B" transform="translate(59.982869, 39.177871) rotate(-89.932157) translate(-59.982869, -39.177871) " cx="59.9828692" cy="39.1778709" rx="6.36564323" ry="6.30915935"></ellipse>
                <polygon id="Shape" fill="#9B4124" points="2.2907489 75.6443662 17.9735683 57.2626761 16.7400881 56.2147887 1.05726872 74.6183099 1.05726872 74.6183099 0 75.8408451 19.6475771 92.3014085 20.7048458 91.0570423"></polygon>
                <ellipse id="Oval" fill="#9B4124" transform="translate(22.834062, 59.089388) rotate(-44.935177) translate(-22.834062, -59.089388) " cx="22.8340617" cy="59.0893882" rx="2.97354167" ry="2.94715672"></ellipse>
                <ellipse id="Oval" fill="#9B4124" transform="translate(26.082167, 66.496467) rotate(-44.935177) translate(-26.082167, -66.496467) " cx="26.0821674" cy="66.496467" rx="2.97354167" ry="2.94715672"></ellipse>
                <ellipse id="Oval" fill="#9B4124" transform="translate(49.606817, 59.142335) rotate(-44.935177) translate(-49.606817, -59.142335) " cx="49.6068172" cy="59.1423349" rx="2.97354167" ry="2.94715672"></ellipse>
                <path d="M54.4273128,70.6232394 L40.3744493,70.6014085 L40.3964758,56.1711268 L38.8546256,56.1711268 L38.8325991,70.6014085 L38.8325991,70.6014085 L38.8325991,72.1295775 L54.4493392,72.1514085 L54.4273128,92.7598592 C60.5947137,92.7598592 65.5947137,87.8260563 65.6167401,81.7133803 C65.5947137,75.6007042 60.5947137,70.6450704 54.4273128,70.6232394 Z" id="Shape" fill="#9B4124"></path>
                <path d="M79.0969163,81.7133803 L79.1189427,56.1929577 L77.5550661,56.1929577 L77.5330396,81.7133803 C77.5330396,87.8260563 82.5330396,92.8035211 88.7004405,92.8035211 C94.8678414,92.8035211 99.8898678,87.8478873 99.8898678,81.7352113 L79.0969163,81.7133803 Z" id="Shape" fill="#9B4124"></path>
            </g>
        </g>
    </g>
</svg>