<?xml version="1.0" encoding="UTF-8"?>
<svg width="156px" height="35px" viewBox="0 0 156 35" version="1.1" xmlns="http://www.w3.org/2000/svg" xmlns:xlink="http://www.w3.org/1999/xlink">
    <!-- Generator: sketchtool 51.3 (57544) - http://www.bohemiancoding.com/sketch -->
    <title>common/vi_type</title>
    <desc>Created with sketchtool.</desc>
    <defs></defs>
    <g id="Page-1" stroke="none" stroke-width="1" fill="none" fill-rule="evenodd" fill-opacity="0.560000002">
        <g id="A4" transform="translate(-223.000000, -170.000000)" fill="#000000">
            <g id="common/vi_type" transform="translate(223.000000, 170.000000)">
                <path d="M0.779296875,8.42285156 L2.0234375,8.42285156 C2.10091185,8.9378281 2.36751074,9.34798024 2.82324219,9.65332031 C3.27897363,9.95866038 3.85774389,10.1113281 4.55957031,10.1113281 C5.22493822,10.1113281 5.77522569,9.9506852 6.21044922,9.62939453 C6.64567275,9.30810386 6.86328125,8.90364827 6.86328125,8.41601562 C6.86328125,7.9967427 6.70377764,7.64811337 6.38476562,7.37011719 C6.06575361,7.09212101 5.56673517,6.86881595 4.88769531,6.70019531 L3.62304688,6.37207031 C2.72981324,6.14420459 2.08040567,5.81950081 1.67480469,5.39794922 C1.2692037,4.97639763 1.06640625,4.41471705 1.06640625,3.71289062 C1.06640625,2.87434477 1.38655279,2.19645441 2.02685547,1.67919922 C2.66715815,1.16194403 3.50910937,0.903320312 4.55273438,0.903320312 C5.5052131,0.903320312 6.30273116,1.15852609 6.9453125,1.66894531 C7.58789384,2.17936453 7.93424454,2.83332935 7.984375,3.63085938 L6.74707031,3.63085938 C6.66048134,3.12499747 6.42008661,2.72965637 6.02587891,2.44482422 C5.63167121,2.15999207 5.1269562,2.01757812 4.51171875,2.01757812 C3.85546547,2.01757812 3.32796423,2.16796725 2.92919922,2.46875 C2.5304342,2.76953275 2.33105469,3.17057041 2.33105469,3.671875 C2.33105469,4.05924673 2.47802587,4.37369671 2.77197266,4.61523438 C3.06591944,4.85677204 3.55240546,5.06412674 4.23144531,5.23730469 L5.26367188,5.51074219 C6.28451031,5.7659518 7.01708762,6.10774525 7.46142578,6.53613281 C7.90576394,6.96452037 8.12792969,7.541012 8.12792969,8.265625 C8.12792969,9.17253058 7.79639003,9.89371477 7.13330078,10.4291992 C6.47021153,10.9646837 5.57357336,11.2324219 4.44335938,11.2324219 C3.39973437,11.2324219 2.54411141,10.9772161 1.87646484,10.4667969 C1.20881828,9.95637766 0.843099277,9.27506937 0.779296875,8.42285156 Z M17.5328125,9.89257812 L17.5328125,11 L11.4214844,11 L11.4214844,1.13574219 L17.5328125,1.13574219 L17.5328125,2.24316406 L12.6519531,2.24316406 L12.6519531,5.40820312 L17.2798828,5.40820312 L17.2798828,6.50195312 L12.6519531,6.50195312 L12.6519531,9.89257812 L17.5328125,9.89257812 Z M22.2277344,11 L21.0109375,11 L21.0109375,1.13574219 L22.2072266,1.13574219 L27.5597656,8.8125 L27.6691406,8.8125 L27.6691406,1.13574219 L28.8859375,1.13574219 L28.8859375,11 L27.6896484,11 L22.3371094,3.35058594 L22.2277344,3.35058594 L22.2277344,11 Z M36.4451172,11 L35.2146484,11 L35.2146484,2.24316406 L32.0359375,2.24316406 L32.0359375,1.13574219 L39.6238281,1.13574219 L39.6238281,2.24316406 L36.4451172,2.24316406 L36.4451172,11 Z M46.5130859,0.903320312 C47.9167388,0.903320312 49.0195923,1.36815941 49.8216797,2.29785156 C50.623767,3.22754371 51.0248047,4.48306501 51.0248047,6.06445312 C51.0248047,7.64128393 50.6249063,8.89680522 49.8250977,9.83105469 C49.025289,10.7653042 47.9212961,11.2324219 46.5130859,11.2324219 C45.1003185,11.2324219 43.9917683,10.7653042 43.1874023,9.83105469 C42.3830363,8.89680522 41.9808594,7.64128393 41.9808594,6.06445312 C41.9808594,4.4785077 42.3875936,3.22184708 43.2010742,2.29443359 C44.0145548,1.3670201 45.1185477,0.903320312 46.5130859,0.903320312 Z M46.5130859,2.03808594 C45.5104768,2.03808594 44.7152373,2.400387 44.1273438,3.125 C43.5394502,3.849613 43.2455078,4.82942091 43.2455078,6.06445312 C43.2455078,7.2858134 43.5337536,8.26334269 44.1102539,8.99707031 C44.6867542,9.73079794 45.4876902,10.0976562 46.5130859,10.0976562 C47.5248097,10.0976562 48.3189099,9.73079794 48.8954102,8.99707031 C49.4719104,8.26334269 49.7601563,7.2858134 49.7601563,6.06445312 C49.7601563,4.82942091 49.4707711,3.849613 48.8919922,3.125 C48.3132133,2.400387 47.5202524,2.03808594 46.5130859,2.03808594 Z M62.6855469,7.18554688 C62.6855469,8.40234983 62.3027382,9.38101843 61.5371094,10.121582 C60.7714805,10.8621456 59.7574933,11.2324219 58.4951172,11.2324219 C57.1324802,11.2324219 56.0467163,10.7653042 55.237793,9.83105469 C54.4288697,8.89680522 54.0244141,7.64128393 54.0244141,6.06445312 C54.0244141,4.50585158 54.4322876,3.25602684 55.2480469,2.31494141 C56.0638062,1.37385597 57.1461521,0.903320312 58.4951172,0.903320312 C59.5888727,0.903320312 60.5060184,1.18700888 61.246582,1.75439453 C61.9871456,2.32178018 62.4462882,3.09537271 62.6240234,4.07519531 L61.3730469,4.07519531 C61.1634104,3.4098274 60.8147811,2.90397309 60.3271484,2.55761719 C59.8395158,2.21126129 59.2288448,2.03808594 58.4951172,2.03808594 C57.5198519,2.03808594 56.7417021,2.40266562 56.1606445,3.13183594 C55.5795869,3.86100625 55.2890625,4.83853554 55.2890625,6.06445312 C55.2890625,7.30859997 55.5773083,8.29182582 56.1538086,9.01416016 C56.7303089,9.7364945 57.5130159,10.0976562 58.5019531,10.0976562 C59.3860721,10.0976562 60.1004205,9.84017185 60.6450195,9.32519531 C61.1896186,8.81021878 61.4619141,8.13574636 61.4619141,7.30175781 L61.4619141,7.0625 L58.6865234,7.0625 L58.6865234,5.98242188 L62.6855469,5.98242188 L62.6855469,7.18554688 Z M67.3736328,1.13574219 L67.3736328,7.52734375 C67.3736328,8.27018601 67.608331,8.88427492 68.0777344,9.36962891 C68.5471378,9.8549829 69.2079384,10.0976562 70.0601562,10.0976562 C70.9169314,10.0976562 71.5788714,9.8549829 72.0459961,9.36962891 C72.5131208,8.88427492 72.7466797,8.27018601 72.7466797,7.52734375 L72.7466797,1.13574219 L73.9771484,1.13574219 L73.9771484,7.609375 C73.9771484,8.66211464 73.6307977,9.52913071 72.9380859,10.2104492 C72.2453741,10.8917677 71.2860738,11.2324219 70.0601562,11.2324219 C68.838796,11.2324219 67.880635,10.8917677 67.1856445,10.2104492 C66.4906541,9.52913071 66.1431641,8.66211464 66.1431641,7.609375 L66.1431641,1.13574219 L67.3736328,1.13574219 Z M79.0070313,2.22949219 L79.0070313,6.00292969 L81.4337891,6.00292969 C82.0672558,6.00292969 82.5560204,5.84000814 82.9000977,5.51416016 C83.2441749,5.18831217 83.4162109,4.72233376 83.4162109,4.11621094 C83.4162109,3.52376006 83.2361997,3.06119958 82.8761719,2.72851562 C82.516144,2.39583167 82.0171256,2.22949219 81.3791016,2.22949219 L79.0070313,2.22949219 Z M79.0070313,7.09667969 L79.0070313,11 L77.7765625,11 L77.7765625,1.13574219 L81.5431641,1.13574219 C82.4956428,1.13574219 83.2578422,1.4034804 83.8297852,1.93896484 C84.4017281,2.47444929 84.6876953,3.18651899 84.6876953,4.07519531 C84.6876953,4.76334979 84.5122413,5.35807041 84.1613281,5.859375 C83.8104149,6.36067959 83.3250682,6.70930892 82.7052734,6.90527344 L84.9884766,11 L83.5460938,11 L81.4337891,7.09667969 L79.0070313,7.09667969 Z M94.5847656,11 L94.434375,10.5727539 C94.3341141,10.2879218 94.2190436,9.95980003 94.0891602,9.58837891 C93.9592767,9.21695778 93.8442062,8.88883606 93.7439453,8.60400391 L93.5935547,8.17675781 L89.6697266,8.17675781 L88.6785156,11 L87.3865234,11 L91.0232422,1.13574219 L92.2400391,1.13574219 L95.8767578,11 L94.5847656,11 Z M91.5769531,2.72851562 L91.4197266,3.17285156 C91.3149083,3.469077 91.1861661,3.83593531 91.0334961,4.2734375 L90.5754883,5.5859375 C90.4228182,6.02343969 90.294076,6.390298 90.1892578,6.68652344 L90.0320313,7.13085938 L93.23125,7.13085938 L91.6863281,2.72851562 L91.5769531,2.72851562 Z M98.3841797,8.42285156 L99.6283203,8.42285156 C99.7057947,8.9378281 99.9723936,9.34798024 100.428125,9.65332031 C100.883856,9.95866038 101.462627,10.1113281 102.164453,10.1113281 C102.829821,10.1113281 103.380109,9.9506852 103.815332,9.62939453 C104.250556,9.30810386 104.468164,8.90364827 104.468164,8.41601562 C104.468164,7.9967427 104.30866,7.64811337 103.989648,7.37011719 C103.670636,7.09212101 103.171618,6.86881595 102.492578,6.70019531 L101.22793,6.37207031 C100.334696,6.14420459 99.6852885,5.81950081 99.2796875,5.39794922 C98.8740865,4.97639763 98.6712891,4.41471705 98.6712891,3.71289062 C98.6712891,2.87434477 98.9914356,2.19645441 99.6317383,1.67919922 C100.272041,1.16194403 101.113992,0.903320312 102.157617,0.903320312 C103.110096,0.903320312 103.907614,1.15852609 104.550195,1.66894531 C105.192777,2.17936453 105.539127,2.83332935 105.589258,3.63085938 L104.351953,3.63085938 C104.265364,3.12499747 104.024969,2.72965637 103.630762,2.44482422 C103.236554,2.15999207 102.731839,2.01757812 102.116602,2.01757812 C101.460348,2.01757812 100.932847,2.16796725 100.534082,2.46875 C100.135317,2.76953275 99.9359375,3.17057041 99.9359375,3.671875 C99.9359375,4.05924673 100.082909,4.37369671 100.376855,4.61523438 C100.670802,4.85677204 101.157288,5.06412674 101.836328,5.23730469 L102.868555,5.51074219 C103.889393,5.7659518 104.62197,6.10774525 105.066309,6.53613281 C105.510647,6.96452037 105.732813,7.541012 105.732813,8.265625 C105.732813,9.17253058 105.401273,9.89371477 104.738184,10.4291992 C104.075094,10.9646837 103.178456,11.2324219 102.048242,11.2324219 C101.004617,11.2324219 100.148994,10.9772161 99.4813477,10.4667969 C98.8137011,9.95637766 98.4479821,9.27506937 98.3841797,8.42285156 Z M116.901367,11 L115.670898,11 L115.670898,6.50878906 L110.256836,6.50878906 L110.256836,11 L109.026367,11 L109.026367,1.13574219 L110.256836,1.13574219 L110.256836,5.40136719 L115.670898,5.40136719 L115.670898,1.13574219 L116.901367,1.13574219 L116.901367,11 Z M121.89707,11 L120.666602,11 L120.666602,1.13574219 L121.89707,1.13574219 L121.89707,11 Z M126.608927,9.64265928 L126.608927,10.9224377 C126.608927,11.8790397 126.453803,12.189289 125.794523,12.5900277 L125.445492,12.1634349 C125.975502,11.9178209 126.065991,11.7239151 126.065991,10.9224377 L125.316222,10.9224377 L125.316222,9.64265928 L126.608927,9.64265928 Z M130.041751,11 L130.041751,3.63085938 L131.217532,3.63085938 L131.217532,11 L130.041751,11 Z M130.629642,2.13378906 C130.406333,2.13378906 130.213789,2.05289794 130.052005,1.89111328 C129.89022,1.72932862 129.809329,1.53678497 129.809329,1.31347656 C129.809329,1.08561084 129.89022,0.891927881 130.052005,0.732421875 C130.213789,0.572915869 130.406333,0.493164062 130.629642,0.493164062 C130.857507,0.493164062 131.05119,0.572915869 131.210696,0.732421875 C131.370202,0.891927881 131.449954,1.08561084 131.449954,1.31347656 C131.449954,1.53678497 131.370202,1.72932862 131.210696,1.89111328 C131.05119,2.05289794 130.857507,2.13378906 130.629642,2.13378906 Z M134.709329,11 L134.709329,3.63085938 L135.830423,3.63085938 L135.830423,4.79296875 L135.939798,4.79296875 C136.126648,4.38736776 136.401222,4.07063916 136.763528,3.84277344 C137.125835,3.61490771 137.589535,3.50097656 138.154642,3.50097656 C138.984073,3.50097656 139.620948,3.73681405 140.065286,4.20849609 C140.509624,4.68017814 140.73179,5.35351125 140.73179,6.22851562 L140.73179,11 L139.556009,11 L139.556009,6.515625 C139.556009,5.85025709 139.413595,5.35807451 139.128763,5.0390625 C138.84393,4.72005049 138.407574,4.56054688 137.819681,4.56054688 C137.231787,4.56054688 136.762391,4.74511534 136.411477,5.11425781 C136.060564,5.48340028 135.88511,5.99153322 135.88511,6.63867188 L135.88511,11 L134.709329,11 Z M150.22554,5.88671875 L149.036087,5.88671875 C148.940383,5.52213359 148.731889,5.20996224 148.410599,4.95019531 C148.089308,4.69042839 147.664345,4.56054688 147.135696,4.56054688 C146.474886,4.56054688 145.949663,4.80663816 145.560013,5.29882812 C145.170362,5.79101809 144.97554,6.45409739 144.97554,7.28808594 C144.97554,8.14030374 145.171502,8.81705479 145.563431,9.31835938 C145.95536,9.81966396 146.479443,10.0703125 147.135696,10.0703125 C147.632443,10.0703125 148.046014,9.95865997 148.376419,9.73535156 C148.706824,9.51204315 148.926711,9.19303593 149.036087,8.77832031 L150.22554,8.77832031 C150.120722,9.45280285 149.801714,10.0133441 149.268509,10.4599609 C148.735303,10.9065778 148.026651,11.1298828 147.142532,11.1298828 C146.112579,11.1298828 145.291135,10.7823928 144.678177,10.0874023 C144.065218,9.39241189 143.758743,8.45931575 143.758743,7.28808594 C143.758743,6.1396427 144.064079,5.22135761 144.674759,4.53320312 C145.285439,3.84504864 146.105743,3.50097656 147.135696,3.50097656 C148.033487,3.50097656 148.747835,3.73453542 149.278763,4.20166016 C149.80969,4.66878489 150.125279,5.23046547 150.22554,5.88671875 Z M154.182181,11.0683594 C153.940643,11.0683594 153.732149,10.9806324 153.556692,10.8051758 C153.381236,10.6297192 153.293509,10.4212252 153.293509,10.1796875 C153.293509,9.93359252 153.381236,9.7239592 153.556692,9.55078125 C153.732149,9.3776033 153.940643,9.29101562 154.182181,9.29101562 C154.428276,9.29101562 154.637909,9.3776033 154.811087,9.55078125 C154.984265,9.7239592 155.070852,9.93359252 155.070852,10.1796875 C155.070852,10.4212252 154.984265,10.6297192 154.811087,10.8051758 C154.637909,10.9806324 154.428276,11.0683594 154.182181,11.0683594 Z" id="SENTOGURASHI,inc."></path>
                <path d="M0.66796875,31.7910156 L1.734375,31.7910156 C1.80078158,32.2324241 2.02929492,32.5839831 2.41992188,32.8457031 C2.81054883,33.1074232 3.30663762,33.2382812 3.90820312,33.2382812 C4.47851848,33.2382812 4.95019345,33.1005873 5.32324219,32.8251953 C5.69629093,32.5498033 5.8828125,32.2031271 5.8828125,31.7851562 C5.8828125,31.4257795 5.74609512,31.1269543 5.47265625,30.8886719 C5.19921738,30.6503894 4.77148729,30.4589851 4.18945312,30.3144531 L3.10546875,30.0332031 C2.33983992,29.8378896 1.78320486,29.5595721 1.43554688,29.1982422 C1.08788889,28.8369123 0.9140625,28.3554718 0.9140625,27.7539062 C0.9140625,27.0351527 1.18847382,26.4541038 1.73730469,26.0107422 C2.28613556,25.5673806 3.00780803,25.3457031 3.90234375,25.3457031 C4.71875408,25.3457031 5.402341,25.5644509 5.953125,26.0019531 C6.503909,26.4394553 6.80078104,26.9999966 6.84375,27.6835938 L5.78320312,27.6835938 C5.708984,27.2499978 5.50293138,26.911134 5.16503906,26.6669922 C4.82714675,26.4228503 4.39453389,26.3007812 3.8671875,26.3007812 C3.30468469,26.3007812 2.85254077,26.4296862 2.51074219,26.6875 C2.1689436,26.9453138 1.99804688,27.2890604 1.99804688,27.71875 C1.99804688,28.0507829 2.12402218,28.3203115 2.37597656,28.5273438 C2.62793095,28.734376 3.04491896,28.9121086 3.62695312,29.0605469 L4.51171875,29.2949219 C5.38672313,29.513673 6.01464653,29.8066388 6.39550781,30.1738281 C6.77636909,30.5410175 6.96679688,31.0351531 6.96679688,31.65625 C6.96679688,32.4335976 6.68262003,33.0517555 6.11425781,33.5107422 C5.5458956,33.9697289 4.77734859,34.1992188 3.80859375,34.1992188 C2.91405803,34.1992188 2.18066692,33.9804709 1.60839844,33.5429688 C1.03612995,33.1054666 0.722656523,32.521488 0.66796875,31.7910156 Z M9.29899555,34 L9.29899555,27.6835938 L10.306808,27.6835938 L10.306808,34 L9.29899555,34 Z M9.8029018,26.4003906 C9.61149459,26.4003906 9.44645718,26.3310554 9.30778461,26.1923828 C9.16911204,26.0537102 9.0997768,25.8886728 9.0997768,25.6972656 C9.0997768,25.5019521 9.16911204,25.3359382 9.30778461,25.1992188 C9.44645718,25.0624993 9.61149459,24.9941406 9.8029018,24.9941406 C9.99821528,24.9941406 10.1642292,25.0624993 10.3009487,25.1992188 C10.4376681,25.3359382 10.5060268,25.5019521 10.5060268,25.6972656 C10.5060268,25.8886728 10.4376681,26.0537102 10.3009487,26.1923828 C10.1642292,26.3310554 9.99821528,26.4003906 9.8029018,26.4003906 Z M12.9143973,34 L12.9143973,27.6835938 L13.8753348,27.6835938 L13.8753348,28.6796875 L13.9690848,28.6796875 C14.1292419,28.3320295 14.3645911,28.0605479 14.6751395,27.8652344 C14.985688,27.6699209 15.3831449,27.5722656 15.8675223,27.5722656 C16.5784634,27.5722656 17.1243564,27.774412 17.5052177,28.1787109 C17.8860789,28.5830098 18.0765067,29.1601525 18.0765067,29.9101562 L18.0765067,34 L17.0686942,34 L17.0686942,30.15625 C17.0686942,29.5859346 16.9466251,29.1640639 16.7024833,28.890625 C16.4583414,28.6171861 16.0843217,28.4804688 15.580413,28.4804688 C15.0765042,28.4804688 14.6741645,28.6386703 14.3733817,28.9550781 C14.072599,29.271486 13.9222098,29.7070285 13.9222098,30.2617188 L13.9222098,34 L12.9143973,34 Z M25.8286273,29.6171875 L24.809096,29.6171875 C24.7270644,29.3046859 24.5483552,29.0371105 24.2729632,28.8144531 C23.9975712,28.5917958 23.633317,28.4804688 23.1801898,28.4804688 C22.6137807,28.4804688 22.1635899,28.6914041 21.8296038,29.1132812 C21.4956178,29.5351584 21.3286273,30.1035121 21.3286273,30.8183594 C21.3286273,31.5488318 21.4965943,32.1289041 21.8325335,32.5585938 C22.1684727,32.9882834 22.617687,33.203125 23.1801898,33.203125 C23.6059732,33.203125 23.9604618,33.1074228 24.2436663,32.9160156 C24.5268709,32.7246084 24.7153456,32.4511737 24.809096,32.0957031 L25.8286273,32.0957031 C25.7387831,32.673831 25.4653483,33.154295 25.0083148,33.5371094 C24.5512812,33.9199238 23.9438654,34.1113281 23.1860492,34.1113281 C22.3032322,34.1113281 21.5991377,33.8134795 21.0737445,33.2177734 C20.5483512,32.6220673 20.2856585,31.8222706 20.2856585,30.8183594 C20.2856585,29.8339795 20.5473747,29.0468779 21.0708148,28.4570312 C21.5942549,27.8671846 22.2973729,27.5722656 23.1801898,27.5722656 C23.9497249,27.5722656 24.5620234,27.7724589 25.0171038,28.1728516 C25.4721842,28.5732442 25.7426893,29.0546847 25.8286273,29.6171875 Z M30.5221541,28.4628906 C30.0182453,28.4628906 29.6041869,28.6328108 29.2799666,28.9726562 C28.9557462,29.3125017 28.7741074,29.761716 28.7350447,30.3203125 L32.2155135,30.3203125 C32.2037946,29.761716 32.04364,29.3125017 31.7350447,28.9726562 C31.4264494,28.6328108 31.0221566,28.4628906 30.5221541,28.4628906 Z M32.1862166,32.3652344 L33.1940291,32.3652344 C33.0416846,32.9082058 32.7330939,33.3349594 32.2682478,33.6455078 C31.8034018,33.9560562 31.2252825,34.1113281 30.5338728,34.1113281 C29.6588684,34.1113281 28.965516,33.8173858 28.4537947,33.2294922 C27.9420734,32.6415986 27.6862166,31.8476612 27.6862166,30.8476562 C27.6862166,29.8554638 27.9440265,29.0615264 28.4596541,28.4658203 C28.9752817,27.8701142 29.666681,27.5722656 30.5338728,27.5722656 C31.3854396,27.5722656 32.0553548,27.8564425 32.5436385,28.4248047 C33.0319221,28.9931669 33.2760603,29.7675732 33.2760603,30.7480469 L33.2760603,31.1347656 L28.7350447,31.1347656 L28.7350447,31.1816406 C28.7623886,31.8066438 28.9391446,32.3027325 29.2653181,32.6699219 C29.5914916,33.0371112 30.0221514,33.2207031 30.5573103,33.2207031 C30.9635624,33.2207031 31.3034027,33.1474617 31.5768416,33.0009766 C31.8502804,32.8544915 32.0534034,32.6425795 32.1862166,32.3652344 Z M39.5576452,27.9296875 C39.5576452,27.1757775 39.8183848,26.556643 40.3398717,26.0722656 C40.8613587,25.5878882 41.5263911,25.3457031 42.3349889,25.3457031 C43.0732739,25.3457031 43.6924083,25.5693337 44.1924108,26.0166016 C44.6924133,26.4638694 44.9424108,27.0312466 44.9424108,27.71875 C44.9424108,28.2031274 44.8086231,28.6689431 44.5410436,29.1162109 C44.2734641,29.5634788 43.7588209,30.1816367 42.9970983,30.9707031 L41.0752233,32.9570312 L41.0752233,33.0507812 L45.0830358,33.0507812 L45.0830358,34 L39.6103795,34 L39.6103795,33.2734375 L42.4697545,30.1796875 C43.0088197,29.5976533 43.3760036,29.1533218 43.571317,28.8466797 C43.7666305,28.5400375 43.8642858,28.2011737 43.8642858,27.8300781 C43.8642858,27.3808571 43.7226857,27.007814 43.4394811,26.7109375 C43.1562766,26.414061 42.7646789,26.265625 42.2646764,26.265625 C41.7568614,26.265625 41.3486623,26.4179672 41.040067,26.7226562 C40.7314718,27.0273453 40.5771764,27.429685 40.5771764,27.9296875 L39.5576452,27.9296875 Z M50.3859376,34.1992188 C49.4328078,34.1992188 48.694534,33.8125039 48.1710939,33.0390625 C47.6476537,32.2656211 47.3859376,31.1757883 47.3859376,29.7695312 C47.3859376,28.374993 47.6496068,27.2890664 48.1769532,26.5117188 C48.7042996,25.7343711 49.4406204,25.3457031 50.3859376,25.3457031 C51.3273486,25.3457031 52.0607397,25.7353477 52.5861329,26.5146484 C53.1115262,27.2939492 53.3742189,28.3847586 53.3742189,29.7871094 C53.3742189,31.1894601 53.1134793,32.2753868 52.5919923,33.0449219 C52.0705053,33.814457 51.3351611,34.1992188 50.3859376,34.1992188 Z M50.3859376,33.2792969 C51.0109407,33.2792969 51.488475,32.9775421 51.8185548,32.3740234 C52.1486346,31.7705048 52.313672,30.9023494 52.313672,29.7695312 C52.313672,28.6484319 52.1466815,27.7851593 51.8126954,27.1796875 C51.4787094,26.5742157 51.0031282,26.2714844 50.3859376,26.2714844 C49.768747,26.2714844 49.2912127,26.5751923 48.9533204,27.1826172 C48.6154281,27.7900421 48.4464845,28.6523382 48.4464845,29.7695312 C48.4464845,30.8984431 48.613475,31.765622 48.947461,32.3710938 C49.2814471,32.9765655 49.7609345,33.2792969 50.3859376,33.2792969 Z M57.8099332,34 L57.8099332,26.7167969 L57.7161832,26.7167969 L57.3909878,26.9511719 C57.1741899,27.1074227 56.9241924,27.2890615 56.6409878,27.4960938 C56.3577833,27.703126 56.1077858,27.8847648 55.8909878,28.0410156 L55.5657925,28.2753906 L55.5657925,27.1621094 L55.9056363,26.9189453 C56.1321999,26.7568351 56.393916,26.5683604 56.6907925,26.3535156 C56.987669,26.1386708 57.2493851,25.9501961 57.4759488,25.7880859 L57.8157925,25.5449219 L58.8646207,25.5449219 L58.8646207,34 L57.8099332,34 Z M64.9585381,34.1992188 C64.0640024,34.1992188 63.3325644,33.9697289 62.7642021,33.5107422 C62.1958399,33.0517555 61.9116631,32.4609411 61.9116631,31.7382812 C61.9116631,31.1874972 62.0718177,30.7148457 62.3921318,30.3203125 C62.7124459,29.9257793 63.1382229,29.679688 63.6694756,29.5820312 L63.6694756,29.4882812 C63.2397859,29.3710932 62.8970159,29.1425798 62.6411553,28.8027344 C62.3852946,28.4628889 62.2573662,28.0625023 62.2573662,27.6015625 C62.2573662,26.9414029 62.5102934,26.4003927 63.0161553,25.9785156 C63.5220172,25.5566385 64.1694716,25.3457031 64.9585381,25.3457031 C65.7515108,25.3457031 66.3999418,25.5566385 66.9038506,25.9785156 C67.4077593,26.4003927 67.6597099,26.9414029 67.6597099,27.6015625 C67.6597099,28.0625023 67.5337346,28.4619124 67.2817803,28.7998047 C67.0298259,29.137697 66.6851028,29.3671869 66.2476006,29.4882812 L66.2476006,29.5820312 C66.7788532,29.679688 67.2046302,29.9257793 67.5249443,30.3203125 C67.8452584,30.7148457 68.0054131,31.1874972 68.0054131,31.7382812 C68.0054131,32.4609411 67.7222128,33.0517555 67.1558037,33.5107422 C66.5893946,33.9697289 65.8569801,34.1992188 64.9585381,34.1992188 Z M64.9585381,33.296875 C65.5444785,33.296875 66.0210362,33.1455093 66.3882256,32.8427734 C66.7554149,32.5400375 66.9390068,32.1464868 66.9390068,31.6621094 C66.9390068,31.177732 66.7554149,30.7841812 66.3882256,30.4814453 C66.0210362,30.1787094 65.5444785,30.0273438 64.9585381,30.0273438 C64.3725976,30.0273438 63.8960399,30.1787094 63.5288506,30.4814453 C63.1616612,30.7841812 62.9780693,31.177732 62.9780693,31.6621094 C62.9780693,32.1464868 63.1616612,32.5400375 63.5288506,32.8427734 C63.8960399,33.1455093 64.3725976,33.296875 64.9585381,33.296875 Z M64.9585381,29.1367188 C65.4585406,29.1367188 65.8608803,29.0048841 66.1655693,28.7412109 C66.4702583,28.4775377 66.6226006,28.1308615 66.6226006,27.7011719 C66.6226006,27.2636697 66.4702583,26.9121107 66.1655693,26.6464844 C65.8608803,26.380858 65.4585406,26.2480469 64.9585381,26.2480469 C64.4585356,26.2480469 64.0561958,26.380858 63.7515068,26.6464844 C63.4468178,26.9121107 63.2944756,27.2636697 63.2944756,27.7011719 C63.2944756,28.1308615 63.4477944,28.4775377 63.7544365,28.7412109 C64.0610787,29.0048841 64.4624418,29.1367188 64.9585381,29.1367188 Z M70.8473774,34.0585938 C70.6403451,34.0585938 70.4616359,33.9833992 70.3112446,33.8330078 C70.1608532,33.6826164 70.0856586,33.5039073 70.0856586,33.296875 C70.0856586,33.0859364 70.1608532,32.9062507 70.3112446,32.7578125 C70.4616359,32.6093743 70.6403451,32.5351562 70.8473774,32.5351562 C71.0583159,32.5351562 71.2380016,32.6093743 71.3864399,32.7578125 C71.5348781,32.9062507 71.6090961,33.0859364 71.6090961,33.296875 C71.6090961,33.5039073 71.5348781,33.6826164 71.3864399,33.8330078 C71.2380016,33.9833992 71.0583159,34.0585938 70.8473774,34.0585938 Z M75.8690292,34 L75.8690292,26.7167969 L75.7752792,26.7167969 L75.4500839,26.9511719 C75.2332859,27.1074227 74.9832884,27.2890615 74.7000839,27.4960938 C74.4168793,27.703126 74.1668818,27.8847648 73.9500839,28.0410156 L73.6248886,28.2753906 L73.6248886,27.1621094 L73.9647323,26.9189453 C74.1912959,26.7568351 74.4530121,26.5683604 74.7498886,26.3535156 C75.046765,26.1386708 75.3084812,25.9501961 75.5350448,25.7880859 L75.8748886,25.5449219 L76.9237167,25.5449219 L76.9237167,34 L75.8690292,34 Z M82.9707591,34.1992188 C82.0176293,34.1992188 81.2793555,33.8125039 80.7559154,33.0390625 C80.2324752,32.2656211 79.9707591,31.1757883 79.9707591,29.7695312 C79.9707591,28.374993 80.2344283,27.2890664 80.7617747,26.5117188 C81.2891211,25.7343711 82.0254419,25.3457031 82.9707591,25.3457031 C83.9121701,25.3457031 84.6455612,25.7353477 85.1709544,26.5146484 C85.6963477,27.2939492 85.9590404,28.3847586 85.9590404,29.7871094 C85.9590404,31.1894601 85.6983008,32.2753868 85.1768138,33.0449219 C84.6553268,33.814457 83.9199826,34.1992188 82.9707591,34.1992188 Z M82.9707591,33.2792969 C83.5957622,33.2792969 84.0732965,32.9775421 84.4033763,32.3740234 C84.7334561,31.7705048 84.8984935,30.9023494 84.8984935,29.7695312 C84.8984935,28.6484319 84.731503,27.7851593 84.3975169,27.1796875 C84.0635309,26.5742157 83.5879497,26.2714844 82.9707591,26.2714844 C82.3535685,26.2714844 81.8760342,26.5751923 81.5381419,27.1826172 C81.2002496,27.7900421 81.031306,28.6523382 81.031306,29.7695312 C81.031306,30.8984431 81.1982965,31.765622 81.5322825,32.3710938 C81.8662686,32.9765655 82.345756,33.2792969 82.9707591,33.2792969 Z M88.7424109,34.0585938 C88.5353786,34.0585938 88.3566695,33.9833992 88.2062781,33.8330078 C88.0558867,33.6826164 87.9806921,33.5039073 87.9806921,33.296875 C87.9806921,33.0859364 88.0558867,32.9062507 88.2062781,32.7578125 C88.3566695,32.6093743 88.5353786,32.5351562 88.7424109,32.5351562 C88.9533495,32.5351562 89.1330352,32.6093743 89.2814734,32.7578125 C89.4299116,32.9062507 89.5041296,33.0859364 89.5041296,33.296875 C89.5041296,33.5039073 89.4299116,33.6826164 89.2814734,33.8330078 C89.1330352,33.9833992 88.9533495,34.0585938 88.7424109,34.0585938 Z M93.7640627,34 L93.7640627,26.7167969 L93.6703127,26.7167969 L93.3451174,26.9511719 C93.1283194,27.1074227 92.8783219,27.2890615 92.5951174,27.4960938 C92.3119128,27.703126 92.0619153,27.8847648 91.8451174,28.0410156 L91.5199221,28.2753906 L91.5199221,27.1621094 L91.8597658,26.9189453 C92.0863295,26.7568351 92.3480456,26.5683604 92.6449221,26.3535156 C92.9417986,26.1386708 93.2035147,25.9501961 93.4300783,25.7880859 L93.7699221,25.5449219 L94.8187502,25.5449219 L94.8187502,34 L93.7640627,34 Z M100.865793,34.1992188 C99.9126629,34.1992188 99.174389,33.8125039 98.6509489,33.0390625 C98.1275088,32.2656211 97.8657926,31.1757883 97.8657926,29.7695312 C97.8657926,28.374993 98.1294619,27.2890664 98.6568083,26.5117188 C99.1841546,25.7343711 99.9204754,25.3457031 100.865793,25.3457031 C101.807204,25.3457031 102.540595,25.7353477 103.065988,26.5146484 C103.591381,27.2939492 103.854074,28.3847586 103.854074,29.7871094 C103.854074,31.1894601 103.593334,32.2753868 103.071847,33.0449219 C102.55036,33.814457 101.815016,34.1992188 100.865793,34.1992188 Z M100.865793,33.2792969 C101.490796,33.2792969 101.96833,32.9775421 102.29841,32.3740234 C102.62849,31.7705048 102.793527,30.9023494 102.793527,29.7695312 C102.793527,28.6484319 102.626536,27.7851593 102.29255,27.1796875 C101.958564,26.5742157 101.482983,26.2714844 100.865793,26.2714844 C100.248602,26.2714844 99.7710678,26.5751923 99.4331754,27.1826172 C99.0952831,27.7900421 98.9263395,28.6523382 98.9263395,29.7695312 C98.9263395,30.8984431 99.09333,31.765622 99.4273161,32.3710938 C99.7613021,32.9765655 100.24079,33.2792969 100.865793,33.2792969 Z" id="Since-2018.10.10"></path>
            </g>
        </g>
    </g>
</svg>